# xmcd CD database file
#
# Track frame offsets:
#	150
#	11727
#	23420
#	37707
#	49440
#	60227
#	71830
#	85750
#	98445
#	114185
#	130002
#	144147
#	154235
#	167507
#	181500
#	193800
#
# Disc length: 2722 seconds
#
# Revision: 0
# Processed by: cddbd v1.5.2PL0 Copyright (c) Steve Scherf et al.
# Submitted via: CDex 1.51
#
DISCID=b60aa010
DTITLE=Muddy Waters - Rare And Unissued
DYEAR=1900
DGENRE=Blues
TTITLE0=Little Anna Mae
TTITLE1=Mean Disposition
TTITLE2=Feel Like Going Home
TTITLE3=You're Gonna Miss Me
TTITLE4=Stand Here Trembling
TTITLE5=Last Time I Fool Around With You
TTITLE6=Where's My Woman Been
TTITLE7=Stuff You Gotta Watch
TTITLE8=Lonesome Day
TTITLE9=Iodine In My Coffee
TTITLE10=Smokestack Lightnin
TTITLE11=Let Me Hang Around
TTITLE12=Born Lover
TTITLE13=Deep Down In My Heart
TTITLE14=Good Looking Woman
TTITLE15=Mean Red Spider
EXTD=
EXTT0=
EXTT1=
EXTT2=
EXTT3=
EXTT4=
EXTT5=
EXTT6=
EXTT7=
EXTT8=
EXTT9=
EXTT10=
EXTT11=
EXTT12=
EXTT13=
EXTT14=
EXTT15=
PLAYORDER=
